<svg id="Layer_4" data-name="Layer 4" xmlns="http://www.w3.org/2000/svg" viewBox="0 0 288.3 242.09"><defs><style>.cls-1{fill:#231f20;}.cls-2{fill:#211e1f;}.cls-3{fill:#fff;}.cls-3,.cls-4{stroke:#231f20;}.cls-3,.cls-4,.cls-5{stroke-miterlimit:10;}.cls-4,.cls-5{fill:none;}.cls-5{stroke:#020202;}</style></defs><title>svg-flor2</title><path class="cls-1" d="M177.37,21.34a2.07,2.07,0,0,1,.51-.23c.08,0,.18-.14.24-.05a.88.88,0,0,1,.1.49l0,.1a.93.93,0,0,1-.32.38c-.09.06-.13-.09-.19-.15a2.06,2.06,0,0,1-.35-.45Z" transform="translate(-177.34 -21.03)"/><ellipse class="cls-2" cx="442.59" cy="200.55" rx="5.38" ry="5.94" transform="translate(-198.32 325.16) rotate(-41.82)"/><path class="cls-1" d="M446.58,205a5.88,5.88,0,0,1-4.21,1.49,5.7,5.7,0,0,1-4.1-2.09,6.78,6.78,0,0,1-1.47-4.31,5.79,5.79,0,0,1,1.65-4.18,5.29,5.29,0,0,1,4.37-1.48,6.55,6.55,0,0,1,4.17,2.17,6.06,6.06,0,0,1,1.55,4.39A5.89,5.89,0,0,1,446.58,205Zm-.07-.07a4.51,4.51,0,0,0,1.37-3.93,6.75,6.75,0,0,0-1.68-3.69,6.1,6.1,0,0,0-3.5-1.94,5,5,0,0,0-3.89,1,4.56,4.56,0,0,0-1.69,3.76,5.89,5.89,0,0,0,1.77,3.77,7.35,7.35,0,0,0,3.56,2A4.56,4.56,0,0,0,446.51,204.94Z" transform="translate(-177.34 -21.03)"/><path class="cls-3" d="M456.12,185.84a8.16,8.16,0,0,0,0-2.51,2,2,0,0,0-2.87-1.39c-4,1.86-8.23,6-9.16,10.39-.29,1.38.47,5.74,2.67,5.1C451,196.24,455.35,190.68,456.12,185.84Z" transform="translate(-177.34 -21.03)"/><path class="cls-3" d="M440.8,207.7a10.55,10.55,0,0,0,.13-2.25,2.41,2.41,0,0,0-.33-1.27,1.86,1.86,0,0,0-2-.59c-4.31,1.06-8.77,6.44-9.65,10.63-.32,1.5-.43,4.65,1.83,4.58a3.76,3.76,0,0,0,1.49-.43A14.93,14.93,0,0,0,440.8,207.7Z" transform="translate(-177.34 -21.03)"/><path class="cls-3" d="M439.31,182.45c-1.23-1.35-3-2.24-4.43-.52a5.2,5.2,0,0,0-1,3.17c-.16,3.79.47,7.73,3,10.77.89,1.08,4.49,1.65,5.38-.46C443.92,191.4,442.6,186.09,439.31,182.45Z" transform="translate(-177.34 -21.03)"/><path class="cls-3" d="M446.7,218.67a9.27,9.27,0,0,0,1.95,1.86,2.48,2.48,0,0,0,3.56-.73c2-3.79,1-8-1.67-11.8-.84-1.18-3.62-5.22-5-3.43C442.89,208,443.53,214.68,446.7,218.67Z" transform="translate(-177.34 -21.03)"/><path class="cls-3" d="M434.49,203.76a8.18,8.18,0,0,0,2.34-.89c1.74-1,.69-2.88-.48-3.81-3.94-3.1-10.18-6-14.73-2.27-3.15,2.56.18,4,2.48,5.06C427.14,203.22,431.2,204.52,434.49,203.76Z" transform="translate(-177.34 -21.03)"/><path class="cls-3" d="M462.84,201.79a7.54,7.54,0,0,0,1.86-1.32c.89-.88.36-2.64-.93-2.57-5.6.32-9.95-2-13.82-.19-1.2.56-3.88,3.39-1.92,4.44C451.74,204.15,458.77,203.92,462.84,201.79Z" transform="translate(-177.34 -21.03)"/><path class="cls-4" d="M455,191.35s8.43-6,9.16-2.36-5.14,7.5-5.14,7.5" transform="translate(-177.34 -21.03)"/><path class="cls-1" d="M463,190.2l0-.28a.74.74,0,0,0-.11-.24.64.64,0,0,0-.49-.17,3.3,3.3,0,0,0-1.1.24,15.15,15.15,0,0,0-2.07,1c-1.33.78-2.6,1.67-3.85,2.57s-2.46,1.87-3.7,2.78L448,198.88l-.62-1.16c1.38-.47,2.77-1,4.15-1.49s2.79-1,4.16-1.51a42.78,42.78,0,0,0,4.05-1.77,17.31,17.31,0,0,0,1.89-1.15,5.57,5.57,0,0,0,.84-.7A1.72,1.72,0,0,0,463,190.2Zm.07,0a1.81,1.81,0,0,1-.56,1,5.3,5.3,0,0,1-.84.73,18.52,18.52,0,0,1-1.87,1.2c-1.29.73-2.63,1.37-4,2-2.7,1.22-5.45,2.31-8.24,3.33l-.47.17.4-.3c2.49-1.85,5-3.64,7.61-5.32,1.3-.84,2.62-1.65,4-2.38a16.8,16.8,0,0,1,2.12-1,3.45,3.45,0,0,1,1.15-.22.76.76,0,0,1,.55.21,1,1,0,0,1,.12.29Z" transform="translate(-177.34 -21.03)"/><path class="cls-4" d="M456.66,203.66s7.2,4.48,5.49,7.15-13.06-4.93-13.06-4.93" transform="translate(-177.34 -21.03)"/><path class="cls-1" d="M448.19,203a17.58,17.58,0,0,1,3.91,1.37,16.78,16.78,0,0,0,1.84.94,3.84,3.84,0,0,0,1,.22,2.05,2.05,0,0,0,.49,0,2.21,2.21,0,0,1,.58,0,6.51,6.51,0,0,1,2.07.65,11,11,0,0,1,1.85,1.07,8.79,8.79,0,0,1,1.56,1.49,4.31,4.31,0,0,1,.58,1,1.62,1.62,0,0,1,.15,1.1h-.1a3.12,3.12,0,0,0-1.2-1.49c-.51-.41-1-.8-1.61-1.17a22.66,22.66,0,0,0-3.42-2.06,2.08,2.08,0,0,0-.44-.12,5.52,5.52,0,0,1-.55-.07c-.36-.07-.69-.16-1-.25-.68-.17-1.39-.28-2.06-.48a11.42,11.42,0,0,1-3.64-2Z" transform="translate(-177.34 -21.03)"/><path class="cls-1" d="M437,211.66c.09,1.28.2,2.55.41,3.8a15.83,15.83,0,0,0,.94,3.64,5.07,5.07,0,0,0,.91,1.51,1.63,1.63,0,0,0,1.39.56,3.84,3.84,0,0,0,2.65-2,9.2,9.2,0,0,0,1.07-3.47,19.63,19.63,0,0,0,.13-3.76,18.23,18.23,0,0,0-.6-3.74,6.2,6.2,0,0,0-.69-1.72.78.78,0,0,0-.63-.43,1,1,0,0,0-.66.46,5.61,5.61,0,0,0-.85,3.55A22.12,22.12,0,0,1,441,214c-.24,1.27-.49,2.51-.64,3.75a8,8,0,0,0-.05,1.82,1.21,1.21,0,0,0,.2.63s0,0,0,0-.11-.05-.14-.06-.09,0-.1,0l0,0a1.29,1.29,0,0,0,.21-.26,13.42,13.42,0,0,0,1.27-3.44,24.23,24.23,0,0,0,.59-3.69,14.56,14.56,0,0,0-.15-3.68,5.56,5.56,0,0,0-1.54-3.08l.75-.19c-.82,2.07-1.51,4.21-2.14,6.35a33.47,33.47,0,0,0-.76,3.26,6.62,6.62,0,0,0,.05,3.28l-.09.05a7,7,0,0,1-.37-3.38,29,29,0,0,1,.55-3.36,60.09,60.09,0,0,1,1.87-6.54l.22-.63.53.44a6.25,6.25,0,0,1,1.95,3.6,13.54,13.54,0,0,1,.19,4,21.2,21.2,0,0,1-.68,3.87,14.28,14.28,0,0,1-1.47,3.7,2.38,2.38,0,0,1-.41.46l-.19.12a.76.76,0,0,1-.32.07.68.68,0,0,1-.37-.12,1,1,0,0,1-.15-.15,2,2,0,0,1-.4-1.15,8.83,8.83,0,0,1,.13-2,38.44,38.44,0,0,1,.85-3.78,21,21,0,0,0,.26-3.76,6.14,6.14,0,0,1,1-3.75,1.35,1.35,0,0,1,.88-.56,1.1,1.1,0,0,1,.92.54,7,7,0,0,1,.79,1.8,23.56,23.56,0,0,1,.8,3.8,13,13,0,0,1-1,7.73,4.6,4.6,0,0,1-3.37,2.34,2.46,2.46,0,0,1-2-.85,5.39,5.39,0,0,1-1-1.79,21.17,21.17,0,0,1-.79-7.69Z" transform="translate(-177.34 -21.03)"/><path class="cls-4" d="M427.37,203.47s-6.95,3.94-4,6.74,7.45-.06,7.45-.06" transform="translate(-177.34 -21.03)"/><path class="cls-1" d="M433.84,204.1a21.66,21.66,0,0,1-5.1,3.21,22.84,22.84,0,0,1-2.82,1.09,12,12,0,0,1-1.49.36c-.26,0-.52.06-.78.07a1,1,0,0,1-.8-.18l.06-.05a1,1,0,0,0,.68,0q.36-.09.72-.21c.47-.16.93-.34,1.39-.53.92-.38,1.82-.79,2.72-1.22,1.81-.83,3.61-1.7,5.38-2.59Z" transform="translate(-177.34 -21.03)"/><path class="cls-1" d="M423.39,210.18a17,17,0,0,1,2.13-.69c.7-.2,1.41-.34,2.1-.51s1.38-.31,2.06-.49,1.37-.34,2.1-.6l.05.06a10.56,10.56,0,0,1-4.05,1.76,24.85,24.85,0,0,1-4.39.54Z" transform="translate(-177.34 -21.03)"/><path class="cls-4" d="M430.22,195.46c-1.8-1.08-7.89-8.18-3.68-9.32,2.78-.75,5.42.42,7.43,2.32" transform="translate(-177.34 -21.03)"/><path class="cls-1" d="M435.42,194.21a10.31,10.31,0,0,0-1.89-2.25,14.17,14.17,0,0,0-2.37-1.65,21.56,21.56,0,0,0-2.66-1.15,16.54,16.54,0,0,0-2.77-.76l.56-1.08a38,38,0,0,1,2.92,3c.23.27.46.54.69.83s.22.29.33.47a2,2,0,0,1,.17.28l.07.15h0a9.81,9.81,0,0,0,1.38,1.32,34.63,34.63,0,0,0,3.26,2.49,18.62,18.62,0,0,0,1.75,1.07,4.74,4.74,0,0,0,.93.4,1,1,0,0,0,.93,0l0,.05a1.1,1.1,0,0,1-1,.15,4.89,4.89,0,0,1-1-.33,15.52,15.52,0,0,1-1.86-.95,31.85,31.85,0,0,1-3.44-2.37,9.34,9.34,0,0,1-1.53-1.42,9.25,9.25,0,0,0-1.25-1.66c-.93-1-1.91-2-2.89-3l-.16-.16.22,0a18,18,0,0,1,5.58,2.16,12.77,12.77,0,0,1,2.35,1.85,9.71,9.71,0,0,1,1.7,2.47Z" transform="translate(-177.34 -21.03)"/><path class="cls-4" d="M441.78,186.26s.06-7.57,3.07-7.76a1.6,1.6,0,0,1,.44,0c2.58.5,2.65,7,2.65,7" transform="translate(-177.34 -21.03)"/><path class="cls-1" d="M445.67,178.91c.17,1.4.27,2.8.41,4.2l.15,2.1a6.48,6.48,0,0,1-.1,2.26c-.21.75-.48,1.35-.69,2s-.42,1.32-.62,2c-.39,1.33-.71,2.69-1.11,4l-1.29-.22c.26-2.37.39-4.76.65-7.14.11-1.19.19-2.38.27-3.57a12.26,12.26,0,0,0,0-3.53l.07,0a5.37,5.37,0,0,1,.32,1.77c0,.6,0,1.2,0,1.8,0,1.2,0,2.4-.1,3.6-.11,2.39-.28,4.78-.48,7.17l-.14,0c.36-1.36.74-2.71,1.15-4.06s.91-2.66,1.4-4a6.5,6.5,0,0,0,.17-2.07l-.05-2.1-.08-4.21Z" transform="translate(-177.34 -21.03)"/><path class="cls-1" d="M450,179.59a1.71,1.71,0,0,1,.48.09c.07,0,.21,0,.18.09a.86.86,0,0,1-.27.39l-.08.06a.92.92,0,0,1-.47.11c-.09,0,0-.13,0-.2a2.35,2.35,0,0,1,.09-.48Z" transform="translate(-177.34 -21.03)"/><path class="cls-1" d="M449.7,186.72c-.39.73-.77,1.42-1.17,2.08s-.77,1.32-1.09,2a9.61,9.61,0,0,0-.81,2,5.45,5.45,0,0,0-.14,2.23l-.07,0a4.18,4.18,0,0,1-.38-2.34,6.94,6.94,0,0,1,.73-2.27,15,15,0,0,1,2.88-3.78Z" transform="translate(-177.34 -21.03)"/><path class="cls-1" d="M452.8,189.43a7,7,0,0,0-.78,1.36c-.09.23,0,.46-.14.6a1.93,1.93,0,0,0-.3.67l-.08.05a.84.84,0,0,1-.61-.87,1.29,1.29,0,0,1,.46-.88,4.1,4.1,0,0,1,1.39-1Z" transform="translate(-177.34 -21.03)"/><path class="cls-1" d="M450,193.33a5.43,5.43,0,0,1,0,.91c0,.14.05.33-.08.42a.91.91,0,0,1-.58.2l-.09,0a.89.89,0,0,1-.24-.57c0-.16.17-.23.26-.34a5.72,5.72,0,0,1,.67-.62Z" transform="translate(-177.34 -21.03)"/><path class="cls-1" d="M455.06,196a2.53,2.53,0,0,1-.47.37c-.08,0-.16.18-.24.11a.9.9,0,0,1-.25-.44v-.1a.82.82,0,0,1,.23-.46c.07-.08.16.05.24.09a2.34,2.34,0,0,1,.49.33Z" transform="translate(-177.34 -21.03)"/><path class="cls-1" d="M452.75,199.43a4.31,4.31,0,0,1-.71,0c-.11,0-.26.06-.32-.05a.86.86,0,0,1-.07-.54l.05-.09a.78.78,0,0,1,.48-.26c.12,0,.16.14.23.23a3.77,3.77,0,0,1,.39.59Z" transform="translate(-177.34 -21.03)"/><path class="cls-1" d="M456.3,199.23a23.08,23.08,0,0,1-3.51.25,14.13,14.13,0,0,0-1.62.09,4,4,0,0,0-1.6.47l-.06,0a2.74,2.74,0,0,1,1.48-1,6.3,6.3,0,0,1,1.78-.28,14.62,14.62,0,0,1,3.55.43Z" transform="translate(-177.34 -21.03)"/><path class="cls-1" d="M450.23,200.74a5.39,5.39,0,0,1,2.17,0c.31.08.63.15.93.25s.62.22,1,.32l0,.06a3.84,3.84,0,0,1-2.15.11,10.55,10.55,0,0,1-2.05-.7Z" transform="translate(-177.34 -21.03)"/><path class="cls-1" d="M447.58,207.69a8.67,8.67,0,0,1,3.08,2.84,8.25,8.25,0,0,1,.95,1.93,2.75,2.75,0,0,1-.09,2.21l-.07,0a3.27,3.27,0,0,0-.38-2,13.37,13.37,0,0,0-1-1.75,28.94,28.94,0,0,0-2.52-3.21Z" transform="translate(-177.34 -21.03)"/><path class="cls-1" d="M450.58,208.29a3.75,3.75,0,0,1,.35.73c0,.12.17.24.09.37a.82.82,0,0,1-.45.35h-.1a.84.84,0,0,1-.45-.37c-.07-.12.06-.24.11-.36a5.36,5.36,0,0,1,.35-.73Z" transform="translate(-177.34 -21.03)"/><path class="cls-1" d="M451.55,212.17a3.7,3.7,0,0,1,.63.33c.09.07.26.08.25.21a.84.84,0,0,1-.21.5l-.09.06a.82.82,0,0,1-.54,0c-.12-.05-.06-.2-.08-.31a3.31,3.31,0,0,1,0-.71Z" transform="translate(-177.34 -21.03)"/><path class="cls-1" d="M445.78,207.74a15.84,15.84,0,0,1,.53,3.91c0,.64,0,1.27,0,1.9a7.75,7.75,0,0,0,.2,1.89l-.06.05a4.13,4.13,0,0,1-.72-1.84,16.23,16.23,0,0,1-.2-2,32.52,32.52,0,0,1,.14-4Z" transform="translate(-177.34 -21.03)"/><path class="cls-1" d="M438,206.74c-.67.71-1.34,1.4-2,2s-1.34,1.3-2,2a12,12,0,0,0-1.66,2.08,3.16,3.16,0,0,0-.48,2.51l-.06,0a3,3,0,0,1,0-2.79,8.8,8.8,0,0,1,1.65-2.36,24.15,24.15,0,0,1,4.48-3.57Z" transform="translate(-177.34 -21.03)"/><path class="cls-1" d="M426.13,200.25a4.34,4.34,0,0,1,1.95.24,7.83,7.83,0,0,1,.79.34c.27.12.52.29.89.46l0,.07a3.51,3.51,0,0,1-1.95-.16,9.29,9.29,0,0,1-1.75-.89Z" transform="translate(-177.34 -21.03)"/><path class="cls-1" d="M432.31,201.3c.21-.29.34-.35.4-.24s0,.24,0,.29.09,0,.17,0,.27-.17.36-.14.12.22.09.55l0,.1c-.21.26-.34.33-.44.34s-.16-.12-.17-.34,0-.18-.09-.16-.16.14-.23.18-.17-.09-.13-.44Z" transform="translate(-177.34 -21.03)"/><path class="cls-1" d="M434.21,199c-.22.29-.36.34-.44.23a2,2,0,0,0-.08-.29s-.12,0-.2.05a.42.42,0,0,1-.4.14c-.1-.08-.17-.23-.18-.57l0-.09c.21-.27.35-.34.47-.35s.2.13.24.35.07.18.13.16.17-.14.24-.19.21.1.21.46Z" transform="translate(-177.34 -21.03)"/><path class="cls-1" d="M431.49,198.21c-1.53,0-2.91-.27-4.29-.42a17.44,17.44,0,0,0-2-.14,5.52,5.52,0,0,0-2,.33l-.05-.06a3.86,3.86,0,0,1,2-.85,8.53,8.53,0,0,1,2.2,0,18.15,18.15,0,0,1,4.23,1.09Z" transform="translate(-177.34 -21.03)"/><path class="cls-1" d="M436.51,184.41a23.69,23.69,0,0,1,.44,4.44L437,191a5.42,5.42,0,0,0,.43,2.08l0,.06a3.76,3.76,0,0,1-1-2,14.1,14.1,0,0,1-.25-2.23,30.43,30.43,0,0,1,.23-4.48Z" transform="translate(-177.34 -21.03)"/><path class="cls-1" d="M440.19,187.23a2.27,2.27,0,0,1,.84,1.31c0,.26,0,.54.06.79a2.61,2.61,0,0,0,.27.72,3.3,3.3,0,0,1,.39,1.55,1.92,1.92,0,0,1-.68,1.48l-.06,0a13.09,13.09,0,0,0-.06-1.44c0-.46,0-.94,0-1.46a1.56,1.56,0,0,0-.11-.74,5,5,0,0,0-.41-.65,3,3,0,0,1-.31-1.49Z" transform="translate(-177.34 -21.03)"/><path class="cls-1" d="M438.59,194.57a7.84,7.84,0,0,1,.94.53c.14.09.35.13.41.31a1,1,0,0,1,0,.68l-.07.06a1,1,0,0,1-.67-.07c-.17-.08-.19-.3-.27-.45a7.36,7.36,0,0,1-.42-1Z" transform="translate(-177.34 -21.03)"/><path class="cls-5" d="M441.41,210.06" transform="translate(-177.34 -21.03)"/><path class="cls-5" d="M437.7,214.69C434,240.34,407.58,262,407.58,262l.23-2.56s27.63-25.25,28.72-44.35" transform="translate(-177.34 -21.03)"/><path class="cls-4" d="M420.88,248.82s7.75-7.2,7.42-3.52-2,.63-2,.63" transform="translate(-177.34 -21.03)"/><path class="cls-4" d="M431.82,229.65s3.11-9.4-.38-8.27-.65,3.65-.22,2.4" transform="translate(-177.34 -21.03)"/></svg>